# xmcd
#
# Track frame offsets: 
#        150
#        28124
#        56617
#        78615
#        98940
#        119515
#        154752
#        178793
#        214238
#        241675
#        271659
#        292623
#
# Disc length: 4384 seconds
#
# Revision: 0
# Processed by: cddbd v1.5.2PL0 Copyright (c) Steve Scherf et al.
# Submitted via: ExactAudioCopy v1.0b4
#
DISCID=a0111e0c
DTITLE=Warren Haynes - Gov't Mule's Island Exodus IV [disc 1]
DYEAR=2013
DGENRE=Blues Rock
TTITLE0=Time The Revelator
TTITLE1=The Real Thing
TTITLE2=Hallelujah Boulevard
TTITLE3=Give Me Love (Give Me Peace On Earth)
TTITLE4=Old Friend
TTITLE5=Raven Black Night
TTITLE6=Railroad Boy
TTITLE7=Feel Like Going Home
TTITLE8=Nobody Knows You When You're Down And Out
TTITLE9=Ain't Nothing You Can Do
TTITLE10=Lucky
TTITLE11=Loser
EXTD=
EXTT0=
EXTT1=
EXTT2=
EXTT3=
EXTT4=
EXTT5=
EXTT6=
EXTT7=
EXTT8=
EXTT9=
EXTT10=
EXTT11=
PLAYORDER=
